<svg width="24" height="24" viewBox="0 0 24 24" fill="none" xmlns="http://www.w3.org/2000/svg">
<path d="M12.338 21.9938C10.2946 22.0628 8.27905 21.5038 6.5631 20.392C4.84715 19.2802 3.51324 17.6692 2.7411 15.7759C1.96896 13.8827 1.79571 11.7983 2.2447 9.80358C2.69369 7.80886 3.74333 5.9997 5.25219 4.6199C6.76105 3.2401 8.6566 2.35597 10.6834 2.08665C12.7102 1.81733 14.7709 2.17577 16.5877 3.11366C18.4045 4.05155 19.8902 5.52382 20.8445 7.33208C21.7989 9.14033 22.176 11.1977 21.925 13.2268" stroke="white" stroke-width="2" stroke-linecap="round" stroke-linejoin="round"/>
<path d="M12 6V12L14 13" stroke="#F2D457" stroke-width="2" stroke-linecap="round" stroke-linejoin="round"/>
<path d="M14 18L18 22L22 18" stroke="#F2D457" stroke-width="2" stroke-linecap="round" stroke-linejoin="round"/>
<path d="M18 14V22" stroke="#F2D457" stroke-width="2" stroke-linecap="round" stroke-linejoin="round"/>
</svg>
