<svg width="24" height="24" viewBox="0 0 24 24" fill="none" xmlns="http://www.w3.org/2000/svg">
<path d="M19.05 4.91005C18.1331 3.98416 17.041 3.25002 15.8375 2.75042C14.634 2.25081 13.3431 1.99574 12.04 2.00005C6.57999 2.00005 2.12999 6.45005 2.12999 11.9101C2.12999 13.6601 2.58999 15.3601 3.44999 16.8601L2.04999 22.0001L7.29999 20.6201C8.74999 21.4101 10.38 21.8301 12.04 21.8301C17.5 21.8301 21.95 17.3801 21.95 11.9201C21.95 9.27005 20.92 6.78005 19.05 4.91005ZM12.04 20.1501C10.56 20.1501 9.10999 19.7501 7.83999 19.0001L7.53999 18.8201L4.41999 19.6401L5.24999 16.6001L5.04999 16.2901C4.22754 14.9771 3.79091 13.4593 3.78999 11.9101C3.78999 7.37005 7.48999 3.67005 12.03 3.67005C14.23 3.67005 16.3 4.53005 17.85 6.09005C18.6176 6.85392 19.2259 7.7626 19.6396 8.76338C20.0533 9.76417 20.2642 10.8371 20.26 11.9201C20.28 16.4601 16.58 20.1501 12.04 20.1501Z" fill="white"/>
<path d="M14.87 13.1801C15.09 13.2701 16.31 13.8701 16.56 13.9901C16.81 14.1101 16.96 14.1601 17.03 14.2701C17.1 14.3801 17.1 14.8701 16.89 15.4501C16.69 16.0301 15.7 16.5601 15.22 16.6301C14.79 16.6901 14.25 16.7201 13.66 16.5301C13.3 16.4201 12.84 16.2701 12.25 16.0101C9.77001 14.9401 8.14001 12.4401 8.02001 12.2701L8.01806 12.2675C7.89072 12.0977 7.01001 10.9237 7.01001 9.71008C7.01001 8.49008 7.65001 7.89008 7.87001 7.64008C8.10001 7.39008 8.36001 7.33008 8.53001 7.33008H9.01001C9.16001 7.34008 9.37001 7.28008 9.57001 7.76008C9.77001 8.26008 10.27 9.48008 10.33 9.60008C10.39 9.72008 10.43 9.86008 10.35 10.0301C10.27 10.1901 10.22 10.3001 10.1 10.4401C9.98001 10.5801 9.84001 10.7601 9.73001 10.8701C9.60001 11.0001 9.48001 11.1301 9.62001 11.3801C9.77001 11.6301 10.26 12.4401 11 13.1001C11.94 13.9401 12.74 14.2101 12.99 14.3301C13.24 14.4601 13.39 14.4401 13.53 14.2701C13.67 14.1101 14.14 13.5501 14.31 13.3001C14.48 13.0601 14.64 13.1001 14.87 13.1801Z" fill="#F2D457"/>
</svg>
